<svg width="196" height="48" viewBox="0 0 196 48" fill="none" xmlns="http://www.w3.org/2000/svg">
<path fill-rule="evenodd" clip-rule="evenodd" d="M24.0001 34.2856C23.6022 34.2856 23.2207 34.1276 22.9394 33.8463C22.6581 33.565 22.5001 33.1835 22.5001 32.7856L22.5001 15.4066L16.0621 21.8476C15.9226 21.9871 15.757 22.0977 15.5748 22.1732C15.3926 22.2487 15.1973 22.2875 15.0001 22.2875C14.8028 22.2875 14.6075 22.2487 14.4253 22.1732C14.2431 22.0977 14.0775 21.9871 13.9381 21.8476C13.7986 21.7082 13.688 21.5426 13.6125 21.3604C13.537 21.1782 13.4982 20.9829 13.4982 20.7856C13.4982 20.5884 13.537 20.3931 13.6125 20.2109C13.688 20.0287 13.7986 19.8631 13.9381 19.7236L22.9381 10.7236C23.0774 10.584 23.2429 10.4731 23.4252 10.3975C23.6074 10.3219 23.8028 10.283 24.0001 10.283C24.1974 10.283 24.3927 10.3219 24.575 10.3975C24.7572 10.4731 24.9227 10.584 25.0621 10.7236L34.0621 19.7236C34.2015 19.8631 34.3122 20.0287 34.3876 20.2109C34.4631 20.3931 34.502 20.5884 34.502 20.7856C34.502 20.9829 34.4631 21.1782 34.3876 21.3604C34.3122 21.5426 34.2015 21.7082 34.0621 21.8476C33.7804 22.1293 33.3984 22.2875 33.0001 22.2875C32.8028 22.2875 32.6075 22.2487 32.4253 22.1732C32.2431 22.0977 32.0775 21.9871 31.9381 21.8476L25.5001 15.4066L25.5001 32.7856C25.5001 33.1835 25.342 33.565 25.0607 33.8463C24.7794 34.1276 24.3979 34.2856 24.0001 34.2856V34.2856Z" fill="#F45446"/>
<path d="M41.3461 22.9573C41.4937 25.3586 41.147 27.7648 40.328 30.0228C39.5089 32.2809 38.2355 34.3414 36.5887 36.0735C34.9418 37.8056 32.9576 39.1712 30.7621 40.0836C28.5666 40.9961 26.208 41.4353 23.836 41.3735C21.4641 41.3116 19.1308 40.75 16.9844 39.7243C14.8381 38.6986 12.9258 37.2313 11.3689 35.4157C9.81206 33.6001 8.6448 31.4759 7.94134 29.1781C7.23788 26.8803 7.01361 24.4593 7.28278 22.0688" stroke="#F45446" stroke-width="3" stroke-linecap="round"/>
<path d="M64.4934 6.88V8.368H61.5334V18H59.7094V8.368H56.7334V6.88H64.4934ZM70.1646 18.144C69.3326 18.144 68.5806 17.9573 67.9086 17.584C67.2366 17.2 66.7086 16.6667 66.3246 15.984C65.9406 15.2907 65.7486 14.4907 65.7486 13.584C65.7486 12.688 65.946 11.8933 66.3406 11.2C66.7353 10.5067 67.274 9.97333 67.9566 9.6C68.6393 9.22667 69.402 9.04 70.2446 9.04C71.0873 9.04 71.85 9.22667 72.5326 9.6C73.2153 9.97333 73.754 10.5067 74.1486 11.2C74.5433 11.8933 74.7406 12.688 74.7406 13.584C74.7406 14.48 74.538 15.2747 74.1326 15.968C73.7273 16.6613 73.1726 17.2 72.4686 17.584C71.7753 17.9573 71.0073 18.144 70.1646 18.144ZM70.1646 16.56C70.634 16.56 71.0713 16.448 71.4766 16.224C71.8926 16 72.2286 15.664 72.4846 15.216C72.7406 14.768 72.8686 14.224 72.8686 13.584C72.8686 12.944 72.746 12.4053 72.5006 11.968C72.2553 11.52 71.93 11.184 71.5246 10.96C71.1193 10.736 70.682 10.624 70.2126 10.624C69.7433 10.624 69.306 10.736 68.9006 10.96C68.506 11.184 68.1913 11.52 67.9566 11.968C67.722 12.4053 67.6046 12.944 67.6046 13.584C67.6046 14.5333 67.8446 15.2693 68.3246 15.792C68.8153 16.304 69.4286 16.56 70.1646 16.56ZM78.3678 10.48C78.6771 10.0747 79.0984 9.73333 79.6318 9.456C80.1651 9.17867 80.7678 9.04 81.4398 9.04C82.2078 9.04 82.9064 9.232 83.5358 9.616C84.1758 9.98933 84.6771 10.5173 85.0398 11.2C85.4024 11.8827 85.5838 12.6667 85.5838 13.552C85.5838 14.4373 85.4024 15.232 85.0398 15.936C84.6771 16.6293 84.1758 17.1733 83.5358 17.568C82.9064 17.952 82.2078 18.144 81.4398 18.144C80.7678 18.144 80.1704 18.0107 79.6478 17.744C79.1251 17.4667 78.6984 17.1253 78.3678 16.72V22.192H76.5438V9.184H78.3678V10.48ZM83.7278 13.552C83.7278 12.944 83.5998 12.4213 83.3438 11.984C83.0984 11.536 82.7678 11.2 82.3518 10.976C81.9464 10.7413 81.5091 10.624 81.0398 10.624C80.5811 10.624 80.1438 10.7413 79.7278 10.976C79.3224 11.2107 78.9918 11.552 78.7358 12C78.4904 12.448 78.3678 12.976 78.3678 13.584C78.3678 14.192 78.4904 14.7253 78.7358 15.184C78.9918 15.632 79.3224 15.9733 79.7278 16.208C80.1438 16.4427 80.5811 16.56 81.0398 16.56C81.5091 16.56 81.9464 16.4427 82.3518 16.208C82.7678 15.9627 83.0984 15.6107 83.3438 15.152C83.5998 14.6933 83.7278 14.16 83.7278 13.552ZM91.0515 18.112C90.3048 18.112 89.6328 17.984 89.0355 17.728C88.4382 17.4613 87.9688 17.088 87.6275 16.608C87.2862 16.128 87.1155 15.568 87.1155 14.928H89.0675C89.1102 15.408 89.2968 15.8027 89.6275 16.112C89.9688 16.4213 90.4435 16.576 91.0515 16.576C91.6808 16.576 92.1715 16.4267 92.5235 16.128C92.8755 15.8187 93.0515 15.424 93.0515 14.944C93.0515 14.5707 92.9395 14.2667 92.7155 14.032C92.5022 13.7973 92.2302 13.616 91.8995 13.488C91.5795 13.36 91.1315 13.2213 90.5555 13.072C89.8302 12.88 89.2382 12.688 88.7795 12.496C88.3315 12.2933 87.9475 11.984 87.6275 11.568C87.3075 11.152 87.1475 10.5973 87.1475 9.904C87.1475 9.264 87.3075 8.704 87.6275 8.224C87.9475 7.744 88.3955 7.376 88.9715 7.12C89.5475 6.864 90.2142 6.736 90.9715 6.736C92.0488 6.736 92.9288 7.008 93.6115 7.552C94.3048 8.08533 94.6888 8.82133 94.7635 9.76H92.7475C92.7155 9.35467 92.5235 9.008 92.1715 8.72C91.8195 8.432 91.3555 8.288 90.7795 8.288C90.2568 8.288 89.8302 8.42133 89.4995 8.688C89.1688 8.95467 89.0035 9.33867 89.0035 9.84C89.0035 10.1813 89.1048 10.464 89.3075 10.688C89.5208 10.9013 89.7875 11.072 90.1075 11.2C90.4275 11.328 90.8648 11.4667 91.4195 11.616C92.1555 11.8187 92.7528 12.0213 93.2115 12.224C93.6808 12.4267 94.0755 12.7413 94.3955 13.168C94.7262 13.584 94.8915 14.144 94.8915 14.848C94.8915 15.4133 94.7368 15.9467 94.4275 16.448C94.1288 16.9493 93.6862 17.3547 93.0995 17.664C92.5235 17.9627 91.8408 18.112 91.0515 18.112ZM105.124 13.376C105.124 13.7067 105.102 14.0053 105.06 14.272H98.3238C98.3771 14.976 98.6384 15.5413 99.1078 15.968C99.5771 16.3947 100.153 16.608 100.836 16.608C101.817 16.608 102.51 16.1973 102.916 15.376H104.884C104.617 16.1867 104.132 16.8533 103.428 17.376C102.734 17.888 101.87 18.144 100.836 18.144C99.9931 18.144 99.2358 17.9573 98.5638 17.584C97.9024 17.2 97.3798 16.6667 96.9958 15.984C96.6224 15.2907 96.4358 14.4907 96.4358 13.584C96.4358 12.6773 96.6171 11.8827 96.9798 11.2C97.3531 10.5067 97.8704 9.97333 98.5318 9.6C99.2038 9.22667 99.9718 9.04 100.836 9.04C101.668 9.04 102.409 9.22133 103.06 9.584C103.71 9.94667 104.217 10.4587 104.58 11.12C104.942 11.7707 105.124 12.5227 105.124 13.376ZM103.22 12.8C103.209 12.128 102.969 11.5893 102.5 11.184C102.03 10.7787 101.449 10.576 100.756 10.576C100.126 10.576 99.5878 10.7787 99.1398 11.184C98.6918 11.5787 98.4251 12.1173 98.3398 12.8H103.22ZM110.471 9.04C111.153 9.04 111.756 9.17867 112.279 9.456C112.812 9.72267 113.228 10.0587 113.527 10.464V9.184H115.367V18.144C115.367 18.9547 115.196 19.6747 114.855 20.304C114.513 20.944 114.017 21.4453 113.367 21.808C112.727 22.1707 111.959 22.352 111.063 22.352C109.868 22.352 108.876 22.0693 108.087 21.504C107.297 20.9493 106.849 20.192 106.743 19.232H108.551C108.689 19.6907 108.983 20.0587 109.431 20.336C109.889 20.624 110.433 20.768 111.063 20.768C111.799 20.768 112.391 20.544 112.839 20.096C113.297 19.648 113.527 18.9973 113.527 18.144V16.672C113.217 17.088 112.796 17.44 112.263 17.728C111.74 18.0053 111.143 18.144 110.471 18.144C109.703 18.144 108.999 17.952 108.359 17.568C107.729 17.1733 107.228 16.6293 106.855 15.936C106.492 15.232 106.311 14.4373 106.311 13.552C106.311 12.6667 106.492 11.8827 106.855 11.2C107.228 10.5173 107.729 9.98933 108.359 9.616C108.999 9.232 109.703 9.04 110.471 9.04ZM113.527 13.584C113.527 12.976 113.399 12.448 113.143 12C112.897 11.552 112.572 11.2107 112.167 10.976C111.761 10.7413 111.324 10.624 110.855 10.624C110.385 10.624 109.948 10.7413 109.543 10.976C109.137 11.2 108.807 11.536 108.551 11.984C108.305 12.4213 108.183 12.944 108.183 13.552C108.183 14.16 108.305 14.6933 108.551 15.152C108.807 15.6107 109.137 15.9627 109.543 16.208C109.959 16.4427 110.396 16.56 110.855 16.56C111.324 16.56 111.761 16.4427 112.167 16.208C112.572 15.9733 112.897 15.632 113.143 15.184C113.399 14.7253 113.527 14.192 113.527 13.584ZM125.747 9.184V18H123.923V16.96C123.635 17.3227 123.256 17.6107 122.787 17.824C122.328 18.0267 121.837 18.128 121.315 18.128C120.621 18.128 119.997 17.984 119.443 17.696C118.899 17.408 118.467 16.9813 118.147 16.416C117.837 15.8507 117.683 15.168 117.683 14.368V9.184H119.491V14.096C119.491 14.8853 119.688 15.4933 120.083 15.92C120.477 16.336 121.016 16.544 121.699 16.544C122.381 16.544 122.92 16.336 123.315 15.92C123.72 15.4933 123.923 14.8853 123.923 14.096V9.184H125.747ZM129.977 10.464C130.244 10.016 130.596 9.66933 131.033 9.424C131.481 9.168 132.009 9.04 132.617 9.04V10.928H132.153C131.438 10.928 130.894 11.1093 130.521 11.472C130.158 11.8347 129.977 12.464 129.977 13.36V18H128.153V9.184H129.977V10.464ZM138.118 18.144C137.286 18.144 136.534 17.9573 135.862 17.584C135.19 17.2 134.662 16.6667 134.278 15.984C133.894 15.2907 133.702 14.4907 133.702 13.584C133.702 12.688 133.899 11.8933 134.294 11.2C134.688 10.5067 135.227 9.97333 135.91 9.6C136.592 9.22667 137.355 9.04 138.198 9.04C139.04 9.04 139.803 9.22667 140.486 9.6C141.168 9.97333 141.707 10.5067 142.102 11.2C142.496 11.8933 142.694 12.688 142.694 13.584C142.694 14.48 142.491 15.2747 142.086 15.968C141.68 16.6613 141.126 17.2 140.422 17.584C139.728 17.9573 138.96 18.144 138.118 18.144ZM138.118 16.56C138.587 16.56 139.024 16.448 139.43 16.224C139.846 16 140.182 15.664 140.438 15.216C140.694 14.768 140.822 14.224 140.822 13.584C140.822 12.944 140.699 12.4053 140.454 11.968C140.208 11.52 139.883 11.184 139.478 10.96C139.072 10.736 138.635 10.624 138.166 10.624C137.696 10.624 137.259 10.736 136.854 10.96C136.459 11.184 136.144 11.52 135.91 11.968C135.675 12.4053 135.558 12.944 135.558 13.584C135.558 14.5333 135.798 15.2693 136.278 15.792C136.768 16.304 137.382 16.56 138.118 16.56ZM147.697 18.144C147.004 18.144 146.38 18.0213 145.825 17.776C145.281 17.52 144.849 17.1787 144.529 16.752C144.209 16.3147 144.038 15.8293 144.017 15.296H145.905C145.937 15.6693 146.113 15.984 146.433 16.24C146.764 16.4853 147.174 16.608 147.665 16.608C148.177 16.608 148.572 16.512 148.849 16.32C149.137 16.1173 149.281 15.8613 149.281 15.552C149.281 15.2213 149.121 14.976 148.801 14.816C148.492 14.656 147.996 14.48 147.313 14.288C146.652 14.1067 146.113 13.9307 145.697 13.76C145.281 13.5893 144.918 13.328 144.609 12.976C144.31 12.624 144.161 12.16 144.161 11.584C144.161 11.1147 144.3 10.688 144.577 10.304C144.854 9.90933 145.249 9.6 145.761 9.376C146.284 9.152 146.881 9.04 147.553 9.04C148.556 9.04 149.361 9.296 149.969 9.808C150.588 10.3093 150.918 10.9973 150.961 11.872H149.137C149.105 11.4773 148.945 11.1627 148.657 10.928C148.369 10.6933 147.98 10.576 147.489 10.576C147.009 10.576 146.641 10.6667 146.385 10.848C146.129 11.0293 146.001 11.2693 146.001 11.568C146.001 11.8027 146.086 12 146.257 12.16C146.428 12.32 146.636 12.448 146.881 12.544C147.126 12.6293 147.489 12.7413 147.969 12.88C148.609 13.0507 149.132 13.2267 149.537 13.408C149.953 13.5787 150.31 13.8347 150.609 14.176C150.908 14.5173 151.062 14.9707 151.073 15.536C151.073 16.0373 150.934 16.4853 150.657 16.88C150.38 17.2747 149.985 17.584 149.473 17.808C148.972 18.032 148.38 18.144 147.697 18.144ZM158.996 12.288C159.593 12.3947 160.1 12.7093 160.516 13.232C160.932 13.7547 161.14 14.3467 161.14 15.008C161.14 15.5733 160.99 16.0853 160.692 16.544C160.404 16.992 159.982 17.3493 159.428 17.616C158.873 17.872 158.228 18 157.492 18H153.044V6.88H157.284C158.041 6.88 158.692 7.008 159.236 7.264C159.78 7.52 160.19 7.86667 160.468 8.304C160.745 8.73067 160.884 9.21067 160.884 9.744C160.884 10.384 160.713 10.9173 160.372 11.344C160.03 11.7707 159.572 12.0853 158.996 12.288ZM154.868 11.552H157.124C157.721 11.552 158.185 11.4187 158.516 11.152C158.857 10.8747 159.028 10.48 159.028 9.968C159.028 9.46667 158.857 9.07733 158.516 8.8C158.185 8.512 157.721 8.368 157.124 8.368H154.868V11.552ZM157.332 16.512C157.95 16.512 158.436 16.3627 158.788 16.064C159.14 15.7653 159.316 15.3493 159.316 14.816C159.316 14.272 159.129 13.84 158.756 13.52C158.382 13.2 157.886 13.04 157.268 13.04H154.868V16.512H157.332ZM164.946 10.464C165.213 10.016 165.565 9.66933 166.002 9.424C166.45 9.168 166.978 9.04 167.586 9.04V10.928H167.122C166.407 10.928 165.863 11.1093 165.49 11.472C165.127 11.8347 164.946 12.464 164.946 13.36V18H163.122V9.184H164.946V10.464ZM168.655 13.552C168.655 12.6667 168.836 11.8827 169.199 11.2C169.572 10.5173 170.073 9.98933 170.703 9.616C171.343 9.232 172.047 9.04 172.815 9.04C173.508 9.04 174.111 9.17867 174.623 9.456C175.145 9.72267 175.561 10.0587 175.871 10.464V9.184H177.711V18H175.871V16.688C175.561 17.104 175.14 17.4507 174.607 17.728C174.073 18.0053 173.465 18.144 172.783 18.144C172.025 18.144 171.332 17.952 170.703 17.568C170.073 17.1733 169.572 16.6293 169.199 15.936C168.836 15.232 168.655 14.4373 168.655 13.552ZM175.871 13.584C175.871 12.976 175.743 12.448 175.487 12C175.241 11.552 174.916 11.2107 174.511 10.976C174.105 10.7413 173.668 10.624 173.199 10.624C172.729 10.624 172.292 10.7413 171.887 10.976C171.481 11.2 171.151 11.536 170.895 11.984C170.649 12.4213 170.527 12.944 170.527 13.552C170.527 14.16 170.649 14.6933 170.895 15.152C171.151 15.6107 171.481 15.9627 171.887 16.208C172.303 16.4427 172.74 16.56 173.199 16.56C173.668 16.56 174.105 16.4427 174.511 16.208C174.916 15.9733 175.241 15.632 175.487 15.184C175.743 14.7253 175.871 14.192 175.871 13.584ZM183.306 18.144C182.613 18.144 181.989 18.0213 181.434 17.776C180.89 17.52 180.458 17.1787 180.138 16.752C179.818 16.3147 179.648 15.8293 179.626 15.296H181.514C181.546 15.6693 181.722 15.984 182.042 16.24C182.373 16.4853 182.784 16.608 183.274 16.608C183.786 16.608 184.181 16.512 184.458 16.32C184.746 16.1173 184.89 15.8613 184.89 15.552C184.89 15.2213 184.73 14.976 184.41 14.816C184.101 14.656 183.605 14.48 182.922 14.288C182.261 14.1067 181.722 13.9307 181.306 13.76C180.89 13.5893 180.528 13.328 180.218 12.976C179.92 12.624 179.77 12.16 179.77 11.584C179.77 11.1147 179.909 10.688 180.186 10.304C180.464 9.90933 180.858 9.6 181.37 9.376C181.893 9.152 182.49 9.04 183.162 9.04C184.165 9.04 184.97 9.296 185.578 9.808C186.197 10.3093 186.528 10.9973 186.57 11.872H184.746C184.714 11.4773 184.554 11.1627 184.266 10.928C183.978 10.6933 183.589 10.576 183.098 10.576C182.618 10.576 182.25 10.6667 181.994 10.848C181.738 11.0293 181.61 11.2693 181.61 11.568C181.61 11.8027 181.696 12 181.866 12.16C182.037 12.32 182.245 12.448 182.49 12.544C182.736 12.6293 183.098 12.7413 183.578 12.88C184.218 13.0507 184.741 13.2267 185.146 13.408C185.562 13.5787 185.92 13.8347 186.218 14.176C186.517 14.5173 186.672 14.9707 186.682 15.536C186.682 16.0373 186.544 16.4853 186.266 16.88C185.989 17.2747 185.594 17.584 185.082 17.808C184.581 18.032 183.989 18.144 183.306 18.144ZM189.581 8.016C189.25 8.016 188.973 7.904 188.749 7.68C188.525 7.456 188.413 7.17867 188.413 6.848C188.413 6.51733 188.525 6.24 188.749 6.016C188.973 5.792 189.25 5.68 189.581 5.68C189.901 5.68 190.173 5.792 190.397 6.016C190.621 6.24 190.733 6.51733 190.733 6.848C190.733 7.17867 190.621 7.456 190.397 7.68C190.173 7.904 189.901 8.016 189.581 8.016ZM190.477 9.184V18H188.653V9.184H190.477ZM194.696 6.16V18H192.872V6.16H194.696Z" fill="#F45446"/>
<path d="M57.5723 31.0469H58.8506L62.1113 39.1611L65.3652 31.0469H66.6504L62.6035 41H61.6055L57.5723 31.0469ZM57.1553 31.0469H58.2832L58.4678 37.1172V41H57.1553V31.0469ZM65.9326 31.0469H67.0605V41H65.748V37.1172L65.9326 31.0469ZM73.6479 39.7354V35.9277C73.6479 35.6361 73.5886 35.3831 73.4701 35.1689C73.3562 34.9502 73.183 34.7816 72.9506 34.6631C72.7182 34.5446 72.4311 34.4854 72.0893 34.4854C71.7702 34.4854 71.49 34.54 71.2484 34.6494C71.0115 34.7588 70.8246 34.9023 70.6879 35.0801C70.5557 35.2578 70.4896 35.4492 70.4896 35.6543H69.225C69.225 35.39 69.2934 35.1279 69.4301 34.8682C69.5668 34.6084 69.7628 34.3737 70.018 34.1641C70.2777 33.9499 70.5876 33.7812 70.9477 33.6582C71.3122 33.5306 71.7178 33.4668 72.1645 33.4668C72.7022 33.4668 73.1762 33.5579 73.5863 33.7402C74.001 33.9225 74.3246 34.1982 74.557 34.5674C74.794 34.932 74.9125 35.39 74.9125 35.9414V39.3867C74.9125 39.6328 74.933 39.8949 74.974 40.1729C75.0196 40.4508 75.0857 40.6901 75.1723 40.8906V41H73.8529C73.7891 40.8542 73.739 40.6605 73.7025 40.4189C73.6661 40.1729 73.6479 39.945 73.6479 39.7354ZM73.8666 36.5156L73.8803 37.4043H72.602C72.2419 37.4043 71.9206 37.4339 71.6381 37.4932C71.3555 37.5479 71.1186 37.6322 70.9271 37.7461C70.7357 37.86 70.5899 38.0036 70.4896 38.1768C70.3894 38.3454 70.3393 38.5436 70.3393 38.7715C70.3393 39.0039 70.3917 39.2158 70.4965 39.4072C70.6013 39.5986 70.7585 39.7513 70.9682 39.8652C71.1824 39.9746 71.4444 40.0293 71.7543 40.0293C72.1417 40.0293 72.4835 39.9473 72.7797 39.7832C73.0759 39.6191 73.3106 39.4186 73.4838 39.1816C73.6615 38.9447 73.7572 38.7145 73.7709 38.4912L74.3109 39.0996C74.279 39.291 74.1924 39.5029 74.0512 39.7354C73.9099 39.9678 73.7208 40.1911 73.4838 40.4053C73.2514 40.6149 72.9734 40.7904 72.6498 40.9316C72.3308 41.0684 71.9708 41.1367 71.5697 41.1367C71.0684 41.1367 70.6286 41.0387 70.2504 40.8428C69.8767 40.6468 69.585 40.3848 69.3754 40.0566C69.1703 39.724 69.0678 39.3525 69.0678 38.9424C69.0678 38.5459 69.1452 38.1973 69.3002 37.8965C69.4551 37.5911 69.6785 37.3382 69.9701 37.1377C70.2618 36.9326 70.6127 36.7777 71.0229 36.6729C71.433 36.568 71.891 36.5156 72.3969 36.5156H73.8666ZM78.2664 35.1826V41H77.0018V33.6035H78.198L78.2664 35.1826ZM77.9656 37.0215L77.4393 37.001C77.4438 36.4951 77.519 36.028 77.6648 35.5996C77.8107 35.1667 78.0158 34.7907 78.2801 34.4717C78.5444 34.1527 78.8589 33.9066 79.2234 33.7334C79.5926 33.5557 80.0005 33.4668 80.4471 33.4668C80.8117 33.4668 81.1398 33.5169 81.4314 33.6172C81.7231 33.7129 81.9715 33.8678 82.1766 34.082C82.3862 34.2962 82.5457 34.5742 82.6551 34.916C82.7645 35.2533 82.8191 35.6657 82.8191 36.1533V41H81.5477V36.1396C81.5477 35.7523 81.4907 35.4424 81.3768 35.21C81.2628 34.973 81.0965 34.8021 80.8777 34.6973C80.659 34.5879 80.3901 34.5332 80.0711 34.5332C79.7566 34.5332 79.4695 34.5993 79.2098 34.7314C78.9546 34.8636 78.7335 35.0459 78.5467 35.2783C78.3644 35.5107 78.2208 35.7773 78.116 36.0781C78.0158 36.3743 77.9656 36.6888 77.9656 37.0215ZM89.2014 39.7354V35.9277C89.2014 35.6361 89.1421 35.3831 89.0236 35.1689C88.9097 34.9502 88.7365 34.7816 88.5041 34.6631C88.2717 34.5446 87.9846 34.4854 87.6428 34.4854C87.3238 34.4854 87.0435 34.54 86.802 34.6494C86.565 34.7588 86.3781 34.9023 86.2414 35.0801C86.1092 35.2578 86.0432 35.4492 86.0432 35.6543H84.7785C84.7785 35.39 84.8469 35.1279 84.9836 34.8682C85.1203 34.6084 85.3163 34.3737 85.5715 34.1641C85.8312 33.9499 86.1411 33.7812 86.5012 33.6582C86.8658 33.5306 87.2714 33.4668 87.718 33.4668C88.2557 33.4668 88.7297 33.5579 89.1398 33.7402C89.5546 33.9225 89.8781 34.1982 90.1105 34.5674C90.3475 34.932 90.466 35.39 90.466 35.9414V39.3867C90.466 39.6328 90.4865 39.8949 90.5275 40.1729C90.5731 40.4508 90.6392 40.6901 90.7258 40.8906V41H89.4064C89.3426 40.8542 89.2925 40.6605 89.2561 40.4189C89.2196 40.1729 89.2014 39.945 89.2014 39.7354ZM89.4201 36.5156L89.4338 37.4043H88.1555C87.7954 37.4043 87.4742 37.4339 87.1916 37.4932C86.909 37.5479 86.6721 37.6322 86.4807 37.7461C86.2893 37.86 86.1434 38.0036 86.0432 38.1768C85.9429 38.3454 85.8928 38.5436 85.8928 38.7715C85.8928 39.0039 85.9452 39.2158 86.05 39.4072C86.1548 39.5986 86.312 39.7513 86.5217 39.8652C86.7359 39.9746 86.9979 40.0293 87.3078 40.0293C87.6952 40.0293 88.037 39.9473 88.3332 39.7832C88.6294 39.6191 88.8641 39.4186 89.0373 39.1816C89.215 38.9447 89.3107 38.7145 89.3244 38.4912L89.8645 39.0996C89.8326 39.291 89.746 39.5029 89.6047 39.7354C89.4634 39.9678 89.2743 40.1911 89.0373 40.4053C88.8049 40.6149 88.5269 40.7904 88.2033 40.9316C87.8843 41.0684 87.5243 41.1367 87.1232 41.1367C86.6219 41.1367 86.1822 41.0387 85.8039 40.8428C85.4302 40.6468 85.1385 40.3848 84.9289 40.0566C84.7238 39.724 84.6213 39.3525 84.6213 38.9424C84.6213 38.5459 84.6988 38.1973 84.8537 37.8965C85.0087 37.5911 85.232 37.3382 85.5236 37.1377C85.8153 36.9326 86.1662 36.7777 86.5764 36.6729C86.9865 36.568 87.4445 36.5156 87.9504 36.5156H89.4201ZM97.3473 33.6035H98.4957V40.8428C98.4957 41.4945 98.3635 42.0505 98.0992 42.5107C97.8349 42.971 97.4658 43.3197 96.9918 43.5566C96.5224 43.7982 95.9801 43.9189 95.3648 43.9189C95.1096 43.9189 94.8089 43.8779 94.4625 43.7959C94.1207 43.7184 93.7835 43.584 93.4508 43.3926C93.1227 43.2057 92.8469 42.9528 92.6236 42.6338L93.2867 41.8818C93.5966 42.2555 93.9202 42.5153 94.2574 42.6611C94.5992 42.807 94.9365 42.8799 95.2691 42.8799C95.6702 42.8799 96.0165 42.8047 96.3082 42.6543C96.5999 42.5039 96.8255 42.2806 96.985 41.9844C97.149 41.6927 97.2311 41.3327 97.2311 40.9043V35.2305L97.3473 33.6035ZM92.2545 37.3838V37.2402C92.2545 36.6751 92.3206 36.1624 92.4527 35.7021C92.5895 35.2373 92.7831 34.8385 93.0338 34.5059C93.289 34.1732 93.5966 33.918 93.9566 33.7402C94.3167 33.5579 94.7223 33.4668 95.1734 33.4668C95.6383 33.4668 96.0439 33.5488 96.3902 33.7129C96.7411 33.8724 97.0374 34.1071 97.2789 34.417C97.525 34.7223 97.7187 35.0915 97.86 35.5244C98.0012 35.9574 98.0992 36.4473 98.1539 36.9941V37.623C98.1038 38.1654 98.0058 38.653 97.86 39.0859C97.7187 39.5189 97.525 39.888 97.2789 40.1934C97.0374 40.4987 96.7411 40.7334 96.3902 40.8975C96.0393 41.057 95.6292 41.1367 95.1598 41.1367C94.7177 41.1367 94.3167 41.0433 93.9566 40.8564C93.6012 40.6696 93.2958 40.4076 93.0406 40.0703C92.7854 39.7331 92.5895 39.3366 92.4527 38.8809C92.3206 38.4206 92.2545 37.9215 92.2545 37.3838ZM93.5191 37.2402V37.3838C93.5191 37.7529 93.5556 38.0993 93.6285 38.4229C93.706 38.7464 93.8222 39.0312 93.9771 39.2773C94.1367 39.5234 94.3395 39.7171 94.5855 39.8584C94.8316 39.9951 95.1256 40.0635 95.4674 40.0635C95.8867 40.0635 96.233 39.9746 96.5064 39.7969C96.7799 39.6191 96.9964 39.3844 97.1559 39.0928C97.3199 38.8011 97.4475 38.4844 97.5387 38.1426V36.4951C97.4885 36.2445 97.4111 36.0029 97.3063 35.7705C97.206 35.5335 97.0738 35.3239 96.9098 35.1416C96.7503 34.9548 96.552 34.8066 96.315 34.6973C96.0781 34.5879 95.8001 34.5332 95.4811 34.5332C95.1347 34.5332 94.8362 34.6061 94.5855 34.752C94.3395 34.8932 94.1367 35.0892 93.9771 35.3398C93.8222 35.5859 93.706 35.873 93.6285 36.2012C93.5556 36.5247 93.5191 36.8711 93.5191 37.2402ZM103.586 41.1367C103.071 41.1367 102.604 41.0501 102.185 40.877C101.77 40.6992 101.412 40.4508 101.111 40.1318C100.815 39.8128 100.587 39.4346 100.428 38.9971C100.268 38.5596 100.188 38.0811 100.188 37.5615V37.2744C100.188 36.6729 100.277 36.1374 100.455 35.668C100.633 35.194 100.874 34.793 101.18 34.4648C101.485 34.1367 101.831 33.8883 102.219 33.7197C102.606 33.5511 103.007 33.4668 103.422 33.4668C103.951 33.4668 104.406 33.5579 104.789 33.7402C105.176 33.9225 105.493 34.1777 105.739 34.5059C105.985 34.8294 106.168 35.2122 106.286 35.6543C106.405 36.0918 106.464 36.5703 106.464 37.0898V37.6572H100.94V36.625H105.199V36.5293C105.181 36.2012 105.113 35.8822 104.994 35.5723C104.88 35.2624 104.698 35.0072 104.447 34.8066C104.197 34.6061 103.855 34.5059 103.422 34.5059C103.135 34.5059 102.87 34.5674 102.629 34.6904C102.387 34.8089 102.18 34.9867 102.007 35.2236C101.834 35.4606 101.699 35.75 101.604 36.0918C101.508 36.4336 101.46 36.8278 101.46 37.2744V37.5615C101.46 37.9124 101.508 38.2428 101.604 38.5527C101.704 38.8581 101.847 39.127 102.034 39.3594C102.226 39.5918 102.456 39.7741 102.725 39.9062C102.998 40.0384 103.308 40.1045 103.654 40.1045C104.101 40.1045 104.479 40.0133 104.789 39.8311C105.099 39.6488 105.37 39.4049 105.603 39.0996L106.368 39.708C106.209 39.9495 106.006 40.1797 105.76 40.3984C105.514 40.6172 105.211 40.7949 104.851 40.9316C104.495 41.0684 104.074 41.1367 103.586 41.1367ZM109.298 35.0732V41H108.027V33.6035H109.23L109.298 35.0732ZM109.038 37.0215L108.451 37.001C108.455 36.4951 108.521 36.028 108.649 35.5996C108.776 35.1667 108.966 34.7907 109.216 34.4717C109.467 34.1527 109.779 33.9066 110.153 33.7334C110.526 33.5557 110.959 33.4668 111.452 33.4668C111.798 33.4668 112.117 33.5169 112.409 33.6172C112.7 33.7129 112.953 33.8656 113.167 34.0752C113.382 34.2848 113.548 34.5537 113.666 34.8818C113.785 35.21 113.844 35.6064 113.844 36.0713V41H112.579V36.1328C112.579 35.7454 112.513 35.4355 112.381 35.2031C112.254 34.9707 112.071 34.8021 111.834 34.6973C111.597 34.5879 111.319 34.5332 111 34.5332C110.627 34.5332 110.315 34.5993 110.064 34.7314C109.813 34.8636 109.613 35.0459 109.462 35.2783C109.312 35.5107 109.203 35.7773 109.134 36.0781C109.07 36.3743 109.038 36.6888 109.038 37.0215ZM113.83 36.3242L112.983 36.584C112.987 36.1784 113.053 35.7887 113.181 35.415C113.313 35.0413 113.502 34.7087 113.748 34.417C113.999 34.1253 114.307 33.8952 114.671 33.7266C115.036 33.5534 115.453 33.4668 115.922 33.4668C116.319 33.4668 116.67 33.5192 116.975 33.624C117.285 33.7288 117.545 33.8906 117.754 34.1094C117.968 34.3236 118.13 34.5993 118.24 34.9365C118.349 35.2738 118.404 35.6748 118.404 36.1396V41H117.132V36.126C117.132 35.7113 117.066 35.39 116.934 35.1621C116.806 34.9297 116.624 34.7679 116.387 34.6768C116.155 34.5811 115.877 34.5332 115.553 34.5332C115.275 34.5332 115.029 34.5811 114.815 34.6768C114.601 34.7725 114.421 34.9046 114.275 35.0732C114.129 35.2373 114.017 35.4264 113.94 35.6406C113.867 35.8548 113.83 36.0827 113.83 36.3242ZM123.487 41.1367C122.972 41.1367 122.505 41.0501 122.086 40.877C121.671 40.6992 121.313 40.4508 121.013 40.1318C120.716 39.8128 120.488 39.4346 120.329 38.9971C120.169 38.5596 120.09 38.0811 120.09 37.5615V37.2744C120.09 36.6729 120.179 36.1374 120.356 35.668C120.534 35.194 120.776 34.793 121.081 34.4648C121.386 34.1367 121.733 33.8883 122.12 33.7197C122.507 33.5511 122.908 33.4668 123.323 33.4668C123.852 33.4668 124.307 33.5579 124.69 33.7402C125.078 33.9225 125.394 34.1777 125.64 34.5059C125.887 34.8294 126.069 35.2122 126.187 35.6543C126.306 36.0918 126.365 36.5703 126.365 37.0898V37.6572H120.842V36.625H125.1V36.5293C125.082 36.2012 125.014 35.8822 124.895 35.5723C124.781 35.2624 124.599 35.0072 124.348 34.8066C124.098 34.6061 123.756 34.5059 123.323 34.5059C123.036 34.5059 122.772 34.5674 122.53 34.6904C122.289 34.8089 122.081 34.9867 121.908 35.2236C121.735 35.4606 121.6 35.75 121.505 36.0918C121.409 36.4336 121.361 36.8278 121.361 37.2744V37.5615C121.361 37.9124 121.409 38.2428 121.505 38.5527C121.605 38.8581 121.749 39.127 121.935 39.3594C122.127 39.5918 122.357 39.7741 122.626 39.9062C122.899 40.0384 123.209 40.1045 123.555 40.1045C124.002 40.1045 124.38 40.0133 124.69 39.8311C125 39.6488 125.271 39.4049 125.504 39.0996L126.269 39.708C126.11 39.9495 125.907 40.1797 125.661 40.3984C125.415 40.6172 125.112 40.7949 124.752 40.9316C124.396 41.0684 123.975 41.1367 123.487 41.1367ZM129.206 35.1826V41H127.942V33.6035H129.138L129.206 35.1826ZM128.905 37.0215L128.379 37.001C128.384 36.4951 128.459 36.028 128.605 35.5996C128.751 35.1667 128.956 34.7907 129.22 34.4717C129.484 34.1527 129.799 33.9066 130.163 33.7334C130.532 33.5557 130.94 33.4668 131.387 33.4668C131.752 33.4668 132.08 33.5169 132.371 33.6172C132.663 33.7129 132.911 33.8678 133.116 34.082C133.326 34.2962 133.486 34.5742 133.595 34.916C133.704 35.2533 133.759 35.6657 133.759 36.1533V41H132.488V36.1396C132.488 35.7523 132.431 35.4424 132.317 35.21C132.203 34.973 132.036 34.8021 131.818 34.6973C131.599 34.5879 131.33 34.5332 131.011 34.5332C130.696 34.5332 130.409 34.5993 130.15 34.7314C129.894 34.8636 129.673 35.0459 129.487 35.2783C129.304 35.5107 129.161 35.7773 129.056 36.0781C128.956 36.3743 128.905 36.6888 128.905 37.0215ZM138.877 33.6035V34.5742H134.878V33.6035H138.877ZM136.231 31.8057H137.496V39.168C137.496 39.4186 137.534 39.6077 137.612 39.7354C137.689 39.863 137.79 39.9473 137.913 39.9883C138.036 40.0293 138.168 40.0498 138.309 40.0498C138.414 40.0498 138.523 40.0407 138.637 40.0225C138.756 39.9997 138.845 39.9814 138.904 39.9678L138.911 41C138.81 41.0319 138.678 41.0615 138.514 41.0889C138.355 41.1208 138.161 41.1367 137.933 41.1367C137.623 41.1367 137.338 41.0752 137.079 40.9521C136.819 40.8291 136.612 40.624 136.457 40.3369C136.306 40.0452 136.231 39.6533 136.231 39.1611V31.8057ZM149.529 38.4844C149.529 38.252 149.492 38.0469 149.419 37.8691C149.351 37.6868 149.228 37.5228 149.05 37.377C148.877 37.2311 148.635 37.0921 148.326 36.96C148.02 36.8278 147.633 36.6934 147.163 36.5566C146.671 36.4108 146.227 36.249 145.83 36.0713C145.434 35.889 145.094 35.6816 144.812 35.4492C144.529 35.2168 144.313 34.9502 144.162 34.6494C144.012 34.3486 143.937 34.0046 143.937 33.6172C143.937 33.2298 144.017 32.8721 144.176 32.5439C144.336 32.2158 144.564 31.931 144.86 31.6895C145.161 31.4434 145.518 31.252 145.933 31.1152C146.348 30.9785 146.81 30.9102 147.321 30.9102C148.068 30.9102 148.702 31.0537 149.221 31.3408C149.745 31.6234 150.144 31.9948 150.417 32.4551C150.691 32.9108 150.828 33.3984 150.828 33.918H149.515C149.515 33.5443 149.435 33.2139 149.276 32.9268C149.116 32.6351 148.875 32.4072 148.551 32.2432C148.228 32.0745 147.817 31.9902 147.321 31.9902C146.851 31.9902 146.464 32.0609 146.159 32.2021C145.853 32.3434 145.625 32.5348 145.475 32.7764C145.329 33.0179 145.256 33.2936 145.256 33.6035C145.256 33.8132 145.3 34.0046 145.386 34.1777C145.477 34.3464 145.616 34.5036 145.803 34.6494C145.995 34.7952 146.236 34.9297 146.528 35.0527C146.824 35.1758 147.177 35.2943 147.587 35.4082C148.152 35.5677 148.64 35.7454 149.05 35.9414C149.46 36.1374 149.798 36.3584 150.062 36.6045C150.331 36.846 150.529 37.1217 150.657 37.4316C150.789 37.737 150.855 38.0833 150.855 38.4707C150.855 38.8763 150.773 39.2432 150.609 39.5713C150.445 39.8994 150.21 40.1797 149.905 40.4121C149.599 40.6445 149.232 40.8245 148.804 40.9521C148.38 41.0752 147.906 41.1367 147.382 41.1367C146.922 41.1367 146.468 41.0729 146.022 40.9453C145.58 40.8177 145.176 40.6263 144.812 40.3711C144.452 40.1159 144.162 39.8014 143.944 39.4277C143.73 39.0495 143.622 38.612 143.622 38.1152H144.935C144.935 38.457 145.001 38.751 145.133 38.9971C145.265 39.2386 145.445 39.4391 145.673 39.5986C145.906 39.7581 146.168 39.8766 146.459 39.9541C146.756 40.027 147.063 40.0635 147.382 40.0635C147.843 40.0635 148.232 39.9997 148.551 39.8721C148.87 39.7445 149.112 39.5622 149.276 39.3252C149.444 39.0882 149.529 38.8079 149.529 38.4844ZM155.542 33.6035V34.5742H151.543V33.6035H155.542ZM152.896 31.8057H154.161V39.168C154.161 39.4186 154.2 39.6077 154.277 39.7354C154.355 39.863 154.455 39.9473 154.578 39.9883C154.701 40.0293 154.833 40.0498 154.974 40.0498C155.079 40.0498 155.189 40.0407 155.303 40.0225C155.421 39.9997 155.51 39.9814 155.569 39.9678L155.576 41C155.476 41.0319 155.344 41.0615 155.179 41.0889C155.02 41.1208 154.826 41.1367 154.598 41.1367C154.289 41.1367 154.004 41.0752 153.744 40.9521C153.484 40.8291 153.277 40.624 153.122 40.3369C152.971 40.0452 152.896 39.6533 152.896 39.1611V31.8057ZM161.487 39.7354V35.9277C161.487 35.6361 161.427 35.3831 161.309 35.1689C161.195 34.9502 161.022 34.7816 160.789 34.6631C160.557 34.5446 160.27 34.4854 159.928 34.4854C159.609 34.4854 159.329 34.54 159.087 34.6494C158.85 34.7588 158.663 34.9023 158.527 35.0801C158.394 35.2578 158.328 35.4492 158.328 35.6543H157.064C157.064 35.39 157.132 35.1279 157.269 34.8682C157.405 34.6084 157.601 34.3737 157.857 34.1641C158.116 33.9499 158.426 33.7812 158.786 33.6582C159.151 33.5306 159.557 33.4668 160.003 33.4668C160.541 33.4668 161.015 33.5579 161.425 33.7402C161.84 33.9225 162.163 34.1982 162.396 34.5674C162.633 34.932 162.751 35.39 162.751 35.9414V39.3867C162.751 39.6328 162.772 39.8949 162.813 40.1729C162.858 40.4508 162.924 40.6901 163.011 40.8906V41H161.692C161.628 40.8542 161.578 40.6605 161.541 40.4189C161.505 40.1729 161.487 39.945 161.487 39.7354ZM161.705 36.5156L161.719 37.4043H160.441C160.081 37.4043 159.759 37.4339 159.477 37.4932C159.194 37.5479 158.957 37.6322 158.766 37.7461C158.574 37.86 158.429 38.0036 158.328 38.1768C158.228 38.3454 158.178 38.5436 158.178 38.7715C158.178 39.0039 158.23 39.2158 158.335 39.4072C158.44 39.5986 158.597 39.7513 158.807 39.8652C159.021 39.9746 159.283 40.0293 159.593 40.0293C159.98 40.0293 160.322 39.9473 160.618 39.7832C160.915 39.6191 161.149 39.4186 161.322 39.1816C161.5 38.9447 161.596 38.7145 161.61 38.4912L162.15 39.0996C162.118 39.291 162.031 39.5029 161.89 39.7354C161.749 39.9678 161.559 40.1911 161.322 40.4053C161.09 40.6149 160.812 40.7904 160.488 40.9316C160.169 41.0684 159.809 41.1367 159.408 41.1367C158.907 41.1367 158.467 41.0387 158.089 40.8428C157.715 40.6468 157.424 40.3848 157.214 40.0566C157.009 39.724 156.906 39.3525 156.906 38.9424C156.906 38.5459 156.984 38.1973 157.139 37.8965C157.294 37.5911 157.517 37.3382 157.809 37.1377C158.1 36.9326 158.451 36.7777 158.862 36.6729C159.272 36.568 159.73 36.5156 160.236 36.5156H161.705ZM169.632 33.6035H170.781V40.8428C170.781 41.4945 170.649 42.0505 170.384 42.5107C170.12 42.971 169.751 43.3197 169.277 43.5566C168.808 43.7982 168.265 43.9189 167.65 43.9189C167.395 43.9189 167.094 43.8779 166.748 43.7959C166.406 43.7184 166.069 43.584 165.736 43.3926C165.408 43.2057 165.132 42.9528 164.909 42.6338L165.572 41.8818C165.882 42.2555 166.205 42.5153 166.543 42.6611C166.884 42.807 167.222 42.8799 167.554 42.8799C167.955 42.8799 168.302 42.8047 168.593 42.6543C168.885 42.5039 169.111 42.2806 169.27 41.9844C169.434 41.6927 169.516 41.3327 169.516 40.9043V35.2305L169.632 33.6035ZM164.54 37.3838V37.2402C164.54 36.6751 164.606 36.1624 164.738 35.7021C164.875 35.2373 165.068 34.8385 165.319 34.5059C165.574 34.1732 165.882 33.918 166.242 33.7402C166.602 33.5579 167.007 33.4668 167.459 33.4668C167.923 33.4668 168.329 33.5488 168.675 33.7129C169.026 33.8724 169.323 34.1071 169.564 34.417C169.81 34.7223 170.004 35.0915 170.145 35.5244C170.286 35.9574 170.384 36.4473 170.439 36.9941V37.623C170.389 38.1654 170.291 38.653 170.145 39.0859C170.004 39.5189 169.81 39.888 169.564 40.1934C169.323 40.4987 169.026 40.7334 168.675 40.8975C168.324 41.057 167.914 41.1367 167.445 41.1367C167.003 41.1367 166.602 41.0433 166.242 40.8564C165.886 40.6696 165.581 40.4076 165.326 40.0703C165.071 39.7331 164.875 39.3366 164.738 38.8809C164.606 38.4206 164.54 37.9215 164.54 37.3838ZM165.804 37.2402V37.3838C165.804 37.7529 165.841 38.0993 165.914 38.4229C165.991 38.7464 166.107 39.0312 166.262 39.2773C166.422 39.5234 166.625 39.7171 166.871 39.8584C167.117 39.9951 167.411 40.0635 167.753 40.0635C168.172 40.0635 168.518 39.9746 168.792 39.7969C169.065 39.6191 169.282 39.3844 169.441 39.0928C169.605 38.8011 169.733 38.4844 169.824 38.1426V36.4951C169.774 36.2445 169.696 36.0029 169.591 35.7705C169.491 35.5335 169.359 35.3239 169.195 35.1416C169.035 34.9548 168.837 34.8066 168.6 34.6973C168.363 34.5879 168.085 34.5332 167.766 34.5332C167.42 34.5332 167.121 34.6061 166.871 34.752C166.625 34.8932 166.422 35.0892 166.262 35.3398C166.107 35.5859 165.991 35.873 165.914 36.2012C165.841 36.5247 165.804 36.8711 165.804 37.2402ZM175.871 41.1367C175.356 41.1367 174.889 41.0501 174.47 40.877C174.055 40.6992 173.697 40.4508 173.396 40.1318C173.1 39.8128 172.872 39.4346 172.713 38.9971C172.553 38.5596 172.474 38.0811 172.474 37.5615V37.2744C172.474 36.6729 172.562 36.1374 172.74 35.668C172.918 35.194 173.16 34.793 173.465 34.4648C173.77 34.1367 174.117 33.8883 174.504 33.7197C174.891 33.5511 175.292 33.4668 175.707 33.4668C176.236 33.4668 176.691 33.5579 177.074 33.7402C177.462 33.9225 177.778 34.1777 178.024 34.5059C178.271 34.8294 178.453 35.2122 178.571 35.6543C178.69 36.0918 178.749 36.5703 178.749 37.0898V37.6572H173.226V36.625H177.484V36.5293C177.466 36.2012 177.398 35.8822 177.279 35.5723C177.165 35.2624 176.983 35.0072 176.732 34.8066C176.482 34.6061 176.14 34.5059 175.707 34.5059C175.42 34.5059 175.156 34.5674 174.914 34.6904C174.673 34.8089 174.465 34.9867 174.292 35.2236C174.119 35.4606 173.984 35.75 173.889 36.0918C173.793 36.4336 173.745 36.8278 173.745 37.2744V37.5615C173.745 37.9124 173.793 38.2428 173.889 38.5527C173.989 38.8581 174.132 39.127 174.319 39.3594C174.511 39.5918 174.741 39.7741 175.01 39.9062C175.283 40.0384 175.593 40.1045 175.939 40.1045C176.386 40.1045 176.764 40.0133 177.074 39.8311C177.384 39.6488 177.655 39.4049 177.888 39.0996L178.653 39.708C178.494 39.9495 178.291 40.1797 178.045 40.3984C177.799 40.6172 177.496 40.7949 177.136 40.9316C176.78 41.0684 176.359 41.1367 175.871 41.1367Z" fill="#848484"/>
</svg>
